<?xml version="1.0" encoding="UTF-8"?>
<svg id="Layer_1" data-name="Layer 1" xmlns="http://www.w3.org/2000/svg" width="107.02" height="124.24" viewBox="0 0 107.02 124.24">
  <defs>
    <style>
      .cls-1 {
        fill: #fff;
      }
    </style>
  </defs>
  <path class="cls-1" d="m30.31,104.48l3.37,3.92,3.12,2.45c-1.44,1.22-3.37,1.22-4.81,2.45-1.44.98-2.16,2.94-2.16,4.65.24,3.67,5.77,1.71,7.93,2.69-1.2.98-4.81,1.22-6.49.98-.96-.24-1.68-.73-2.4-1.47-.96-1.22-.48-1.71-1.2-2.94-.24-.73-.24-.49-1.2-.24-1.2.49-2.4.73-3.85.73-2.4,0-5.05-.49-7.45-1.22-9.5-3.1-15.47-12.68-14.18-22.76,1.44-8.07,13.22-19.09,20.43-10.28.96.98,2.16,3.92-.24,4.4-.72,0-1.68-.73-2.4-.98-1.2-.24-2.4,0-3.37.49-4.81,1.71-7.69,5.63-6.97,10.77.96,5.87,4.81,9.79,9.86,11.99,2.4,1.22,4.81,1.96,7.45,2.2,3.12.49,5.05-.24,7.69-2.2-4.57-3.92-9.37-10.28-10.34-16.39-.48-3.43.72-6.61,4.09-7.34s5.77.73,8.89,1.47c0-4.65-.48-8.81.72-13.46.24-.98.48-.98-.24-1.71s-2.4-1.22-3.37-1.71c-3.77-1.68-7.08-4.28-9.62-7.59-.48-.49-.96-1.71-1.68-1.71-.48,0-1.44,1.47-1.92,1.71l-3.85,5.38c-.96,1.47-1.92,3.67-3.37,4.65,0-2.45,1.92-5.38,3.37-7.59l2.4-3.43c.72-.98,2.16-2.2,2.16-3.43,0-4.4-13.46,2.94-15.38,3.18l-.24-.49c3.12-1.71,6.01-3.92,9.37-5.14.96-.49,3.85-.49,4.57-1.47.48-.73,0-2.69-.48-3.18-1.44-1.71-6.73,0-8.65.49l-4.81,1.22c-1.2.24-3.12,1.22-4.33.49,1.2-1.47,4.33-1.96,6.01-2.69,2.16-.49,4.33-1.22,6.73-1.47.96-.24,2.88,0,3.85-.49.72-.24.48-.24.48-1.22v-7.83l1.44-6.61c.48-1.71,2.4-3.43,1.44-5.14s-2.88-3.18-4.33-4.4c-1.68-1.47-3.61-2.69-5.77-3.67-.48-.24-4.81-1.71-5.29-1.22-.48.73,2.64,5.38,2.88,5.87l3.37,5.63,1.92,2.69c.24.24,1.92,1.71,1.68,2.2-.24,1.22-2.88-1.47-3.12-1.71-1.68-1.71-2.88-3.67-4.09-5.63-2.4-4.16-4.57-8.56-6.25-13.21C1.23,13.7-.21,10.77.03,9.05c.48-1.22,4.57-.49,6.01-.49,4.81,0,9.37,1.22,13.94,2.94l6.49,2.69,6.01,4.16c1.68.73,4.09-1.22,5.77-1.96,2.16-.98,4.57-1.96,7.21-2.45,7.1-1.61,14.44-1.86,21.63-.73.96.24,2.4.73,3.61.49.96-.24,2.16-1.47,2.88-2.2,5.69-4.13,11.92-7.43,18.51-9.79,2.4-.49,5.05-1.71,7.21-1.71,2.88,0,1.92,2.94,1.44,4.89l-1.92,7.59c-.72,2.69-1.68,4.89-2.88,7.34-.72,2.2-1.68,4.4-3.61,5.87-.48.49-1.68.73-1.68,1.47,0,.98,1.44,2.69,1.92,3.43.96,2.45,1.92,4.89,2.4,7.34l.48,3.18q.24,1.47,1.44.98c1.92-.73,5.05-2.45,6.97-1.71-.48,1.22-2.64,1.47-3.85,2.2-1.2.49-3.37,1.22-4.09,2.45-.96,1.47,0,1.96,1.44,2.2,1.68.24,3.61-.24,5.29.98-1.92.49-3.85.24-5.77.98-2.16.98-1.92,3.18-2.64,5.14s-2.16,3.92-3.12,5.63l-1.68,2.45c-1.2,1.22-1.68,1.22-.48,2.45.72.73,2.4,3.67,3.61,3.43,1.92-.49,2.16-4.16,3.61-5.14,1.44-1.22,4.09-.49,6.01-1.71,1.68-1.22,2.88-3.43,3.12-5.63.24-1.22-.24-4.4-2.16-3.18-.48.24-4.09,4.65-3.85,1.47,0-.98,2.88-3.92,3.85-3.92,1.92.24,3.85,2.94,3.85,4.65.24,3.67-1.44,7.34-5.05,9.05-1.68.73-3.37.24-4.57,1.71-1.44,1.71-2.4,3.43-4.57,4.4-.72.24-1.2.24-1.92.98l-2.16,1.71c-2.16,1.71-4.33,2.69-6.73,3.67-.72.49-3.12.98-3.61,1.71-.48.49.72,2.2.96,2.94.96,2.69.72,5.38,1.68,7.83,2.88-1.96,6.25-4.4,10.1-3.43,4.09,1.22,5.05,4.4,4.57,8.32-.59,5.9-3.77,11.21-8.65,14.44-1.44,1.22-3.12,2.94-5.29,2.94l6.25-5.63c.48-.73,1.44-1.22.96-1.96-.48-.49-2.16,0-2.88-.49-2.64-1.96,1.92-2.94,3.12-2.94.96,0,2.16.24,2.88-.49.48-.49.96-2.69,1.2-3.43-.96,0-5.77.73-5.29-1.71.24-.98,2.16-1.47,2.88-1.71,1.44-.73,2.88-.73,2.64-2.69-1.44-5.63-8.17-2.69-11.06.24l-1.92,2.69c-.24.73-.48,2.45-1.44,2.69-2.4.73-1.2-4.4-1.2-5.63s.24-1.47-.96-1.96c-.72-.24-1.68-.49-2.4-1.22-.72-.24-1.68-1.22-1.44-2.2.48-1.22,2.88-.24,3.61-.49,1.2-.73-.24-3.92-.96-4.89-.24-.73-1.44-1.71-.96-2.69l3.61-.73c3.47-1.31,6.78-3.03,9.86-5.14.96-.98,1.92-1.47,1.2-2.45l-2.4-2.45c-.96-.49-1.68.49-2.64.98-1.92,1.47-4.09,2.69-6.25,3.67-5.29,2.45-11.06,2.69-16.59,3.18-5.77.49-11.3.73-17.07.73-1.44,0-2.64,0-3.85-.49-.96-.24-1.44-.73-2.16.24-.48.98-.24,3.18-.48,4.16l-.24,4.65c.24.73,0,2.94.48,3.43.48.24,2.16-.49,2.64-.49.96,0,3.12.49,3.37,1.47.48,1.22-2.16,2.69-2.88,3.18s-2.4,1.22-2.4,2.2c-.24,1.47,1.2,1.22,2.16,1.22,1.2-.24,5.77-.98,3.85,1.96-.72,1.47-4.81,2.45-4.57,4.4,0,1.22.72.49,1.68.24,1.2-.24,2.64-.49,3.85-.24,2.64.73.48,2.94-.96,3.92-.48.24-2.16.98-2.4,1.47-.24,1.47,1.2,2.45,2.16,2.2,2.4-.24,4.57-1.96,6.97-2.2.96-.24,2.64.24,3.12-.24.96-.73.48-3.18.48-4.16,0-5.63-.72-11.99-2.16-17.37-.24-.73-1.2-2.2-.48-2.69,1.2-.98,1.92,1.47,2.16,1.96.48,1.22.48,1.96,1.68,1.96,1.68,0,3.12-.49,4.81-.24,5.53.49,11.06,2.45,12.98,8.32,1.92,5.63,3.85,12.23,1.44,17.86-1.2,2.45-2.64,4.4-4.57,6.12-1.68,1.71-5.29,3.92-7.93,2.45.96-.98,2.4-.73,3.37-1.22,4.43-2.29,7.41-6.71,7.93-11.75.24-2.94-.72-7.59-1.92-10.52-.96-2.45-3.37-5.38-5.53-7.1-1.44-.98-3.12-1.47-4.81-1.71-1.2,0-4.33-.24-5.29.49-1.2.73-.48,2.2-.24,3.18l.48,6.12v5.63l-.48,1.96c.24.98.48.49.96.98.72.73.48,2.45.48,3.43-.48,1.96-1.44,2.2.24,3.43,2.4,1.47,3.37,4.89,1.68,7.34-1.68,2.45-5.05,3.92-7.93,4.16-3.12.24-7.21.49-9.86-.98s-4.33-3.92-2.4-6.61c.72-.98,2.4-1.22,2.88-2.2.48-.73-1.2-3.18-1.44-4.16l.24-1.47-.48-1.71-2.4-5.14c-1.2-3.67-.72-7.83-2.16-11.26-.96-2.45-5.29-3.18-7.69-2.94-1.2.24-2.4.73-3.12,1.96-.24.49-.96,2.69-.24,3.18l1.44.24,2.64.98c1.68.98,1.92,2.45-.24,2.94-.72.24-2.64-.24-2.88.49s1.2,2.69,1.92,3.18c1.2.73,3.37,0,4.57.98,1.68,1.47-1.44,2.45-2.64,2.94Zm58.17-44.29c-.96-.73-5.29-1.96-4.09-3.92.48-.73,2.4-.73,2.88-.73,1.2-.24,3.37,0,4.09-.73.48-.24,1.44-1.96,1.44-2.45-.48-.73-2.64-.73-3.12-.73-.96-.24-2.16-.49-2.4-1.71s.72-1.47,1.68-1.96l3.37-.98c1.44,0,1.44.24,1.44-1.47,0-2.69-.24-5.87-.96-8.56-1.2-5.14-3.61-9.79-7.69-13.21-3.61-3.18-7.93-5.38-12.5-6.85-.96-.24-2.4-.98-3.37-.49l-1.44,2.69c-.72,1.47-1.68,3.67-3.85,2.69-2.4-.98-.48-3.92-1.2-5.63-.72-1.47-3.12-.49-4.57-.49-1.2.24-2.64,0-3.37.98-.48.73-.48,2.45-.72,3.43s-.24,2.45-1.44,2.45c-.72,0-1.68-.98-1.92-1.47-.96-.98-1.2-2.45-1.68-3.43-.72-1.47-.48-1.96-2.16-1.71-1.92.49-4.33.98-6.25,1.96-2.16,1.22-1.68,4.4-1.92,6.61-.48,2.45-2.4,1.22-3.37-.24-.48-.73-.96-2.45-2.16-2.45-.96.24-2.4,1.71-2.88,2.2-1.92,1.22-3.61,2.69-5.05,4.4-3.37,3.67-4.57,7.83-5.77,12.48-.48,2.2,0,4.89.24,7.1,0,1.22,0,1.71.48,2.69.72.98.72,1.47.96,2.69.48,1.96,1.68.98,3.37.73,2.4,0,3.85,1.47,2.16,3.43-.96,1.47-3.37,2.2-2.4,3.92,1.2,2.2,2.64.98,4.57.49,1.92-.73,3.61-.24,2.64,2.2-.24.73-1.2,1.71-1.2,2.45s1.44,1.47,1.92,1.71c4.09,2.45,8.17,3.92,12.98,4.4,5.53.73,11.06,0,16.59-.49,9.86-.49,20.67-3.18,26.68-11.99ZM99.06,2.69c.24-1.47-6.01.73-6.97.98-2.64.98-5.77,1.96-8.17,3.67-1.2.73-1.92,1.96-3.12,2.94l-2.88,2.69c-.48.49-2.4,2.2-2.16,3.18,0,.49,2.16.98,2.88,1.22,3.66,1.87,6.99,4.36,9.86,7.34.96,1.22,1.2,1.22,2.16,0,1.92-2.2,3.37-5.38,4.57-8.07.96-2.94,2.4-6.36,2.4-9.3-2.88.73-6.49,4.16-8.65,6.61l-3.37,4.16c-1.68,1.71-1.92,0-1.2-1.47,1.68-3.43,4.57-5.87,7.21-8.32l4.33-3.18c.96-.49,3.12-1.47,3.12-2.45ZM4.83,10.03c-.48,0-2.16-.24-2.4.49-.48.73.96,3.43,1.2,4.16.48.98.72,3.43,1.68,3.92.72.49,3.12.24,4.09.49,2.88.49,5.53,2.2,8.17,3.92l3.12,2.2c.96.98,1.44,2.69,2.88,1.71,1.2-.73,1.92-2.2,3.12-3.18.96-.73,2.88-1.47,2.4-2.69-.24-.98-2.4-2.2-3.12-2.69l-3.85-2.69-7.69-4.16c-3.12-1.22-6.49-1.22-9.62-1.47Zm51.2,98.12c-.24-2.2-4.33-.73-5.77-.49-1.44.49-5.77,1.71-6.01,3.18-.24,1.22,1.2,2.69.72,3.92-.24.98-.96.98-1.92,1.47-1.2.73-2.16,2.45-1.2,3.92,1.44-.98,1.68-1.96,3.37-1.47-.24,1.22-.96,1.71-1.92,2.94l2.16.98c.72-.24.48-1.22.96-1.71.72-.73,2.4-1.22,2.4,0,.24.49-.96,1.22-.96,1.71.24.49,1.68.24,2.16.24.72-.24.24-.24.72-.73s.24-1.22,1.2-1.22c.96.24.48.98,1.2,1.22.48.24,1.44-.24,1.92-.49,1.92-.73,3.61-2.2,3.61-4.4s-.96-3.18-2.64-4.16c-1.68-1.22-.48-3.18,0-4.89Zm-49.52.24c.96.98,2.16,3.18,3.61,2.69.72-.24,2.16-1.71,2.88-.49.72.98-.96,1.96-.24,2.94.24.73,2.64,1.47,3.37,1.22.96-.24,1.68-2.2,2.88-1.47,1.44.98-.72,2.2,1.44,2.69,2.4.49,6.97,0,8.41-2.2-2.4-.73-4.81-.49-7.21-1.22-2.16-.49-4.09-1.47-6.25-2.45-3.61-1.71-6.49-5.14-7.93-9.05s-1.2-8.81,1.92-11.99c2.88-2.94,7.21-4.89,11.06-2.94.24-.73-.48-3.67-1.68-3.18-.48.24-.24,1.22-1.2,1.22-.48,0-.72-.24-1.2-.73-.96-.98-1.2-2.2-2.88-1.47-1.2.49-.72.24-.48,1.47v1.96c-.96,1.47-1.92-.24-2.88-.73-.96-.73-.96-.49-1.92.24q-.72.73-.72,1.47c.24.98,2.16,2.69.48,3.43-1.2.73-1.92-1.22-3.12-.49l-.96,1.96c0,.73.96,1.22,1.44,1.71.24.49.96,1.22.24,1.71-.48.73-1.44-.24-2.16,0l-.72.49v2.94c.72.98,3.12.24,3.37,1.71,0,1.47-2.4.98-2.64,1.71s1.44,3.67,1.92,3.92c.96.49,2.88-1.22,3.12.73.24.98-.96,2.2-1.92,2.2Z"/>
  <path class="cls-1" d="m75.99,119.9l7.21-.49,2.64-.73c.24-.49-.96-.98-1.2-1.22.96-.24,2.88.24,2.64-.98,0-.73-2.64-.49-3.37-.98l1.92-1.22c-1.44-.98-3.12-.98-4.33-2.2,3.12-2.2,9.62,2.2,7.45,6.12-1.68,3.67-9.86,2.69-12.98,2.2v-.49Zm19.71-66.56c.24-.73.96-2.69,1.68-3.18.96-.49,1.68.24,1.68,1.22-.24.73-1.2,2.69-1.92,3.18-.96.73-.96,0-1.44-1.22Zm-29.09,4.89c1.2-.73,1.92-1.22,2.64-2.2.48-.49.96-1.22,1.44-.24.48.49-.48,1.47-.72,1.96l-2.64,1.71v2.69c0,1.22-.24,2.69-.72,3.92-.48,1.96-1.44,3.67-3.37,4.65-3.61,1.96-6.73-.49-8.17-3.92l-.96-4.16c-.24-.73,0-1.71-.72-2.2-.48-.73-1.92-.73-2.64-1.22-.96-.73-1.2-1.47-1.44-2.45,1.44.73,2.4,1.96,4.09,2.2s3.85,0,5.05-.98c3.85-3.18-3.37-4.4-1.92-6.85.48-.98,4.81-1.71,5.77-1.47,1.44.49,1.2,1.71.72,3.18-.48.98-.96.98-.72,1.96l.72,1.47c.96,1.47,2.16,1.71,3.61,1.96Zm-.96,3.18c-.48-1.96-.96-1.96-2.4-2.94-.72-.49-1.44-1.22-2.16-.98s-1.2,1.22-1.68,1.47l-1.92.98-2.4.49c-.48.73.96,3.18,1.2,4.16.96,2.69,2.16,6.36,5.53,5.14,3.12-1.22,3.37-5.63,3.85-8.32Zm-4.09-10.52c-.96.24-3.61.73-2.4,2.2,1.2,1.71,2.64-1.22,2.4-2.2Zm13.46-7.1c0,1.47-.72,3.92-2.64,4.16-2.16.49-2.88-2.45-2.88-4.16s.48-3.92,2.64-4.16c2.4-.24,2.64,2.2,2.88,4.16Zm-28.85,2.2c0,1.47-.24,3.92-2.4,3.67-1.68,0-2.64-2.2-2.64-3.67-.48-5.14,4.81-3.92,5.05,0Zm27.64-18.11l-3.37,4.65c-.48.73-3.12,4.65-4.09,4.65-2.64,0,1.2-3.92,1.44-4.4,1.68-1.71,3.61-4.16,5.53-5.14l.48.24Zm-35.82,5.38l7.21,2.2c.72.49,5.29,2.69,3.12,3.67-1.2.49-4.09-2.45-5.29-2.94-1.68-.73-4.81-.98-6.01-2.45l.96-.49Z"/>
</svg>