<svg id="Layer_1" xmlns="http://www.w3.org/2000/svg" viewBox="0 0 445 508"><defs><style>.cls-1{fill:#fff}</style></defs><path class="cls-1" d="m126 427 14 16 13 10c-6 5-14 5-20 10-6 4-9 12-9 19 1 15 24 7 33 11-5 4-20 5-27 4-4-1-7-3-10-6-4-5-2-7-5-12-1-3-1-2-5-1-5 2-10 3-16 3-10 0-21-2-31-5a86 86 0 0 1-59-93c6-33 55-78 85-42 4 4 9 16-1 18-3 0-7-3-10-4-5-1-10 0-14 2-20 7-32 23-29 44 4 24 20 40 41 49 10 5 20 8 31 9 13 2 21-1 32-9-19-16-39-42-43-67-2-14 3-27 17-30s24 3 37 6c0-19-2-36 3-55 1-4 2-4-1-7s-10-5-14-7a103 103 0 0 1-40-31c-2-2-4-7-7-7-2 0-6 6-8 7l-16 22c-4 6-8 15-14 19 0-10 8-22 14-31l10-14c3-4 9-9 9-14 0-18-56 12-64 13l-1-2c13-7 25-16 39-21 4-2 16-2 19-6 2-3 0-11-2-13-6-7-28 0-36 2l-20 5c-5 1-13 5-18 2 5-6 18-8 25-11 9-2 18-5 28-6 4-1 12 0 16-2 3-1 2-1 2-5v-32l6-27c2-7 10-14 6-21s-12-13-18-18c-7-6-15-11-24-15-2-1-20-7-22-5-2 3 11 22 12 24l14 23 8 11c1 1 8 7 7 9-1 5-12-6-13-7-7-7-12-15-17-23C23 99 14 81 7 62c-2-6-8-18-7-25 2-5 19-2 25-2 20 0 39 5 58 12l27 11 25 17c7 3 17-5 24-8 9-4 19-8 30-10a244 244 0 0 1 90-3c4 1 10 3 15 2 4-1 9-6 12-9a309 309 0 0 1 77-40c10-2 21-7 30-7 12 0 8 12 6 20l-8 31c-3 11-7 20-12 30-3 9-7 18-15 24-2 2-7 3-7 6 0 4 6 11 8 14 4 10 8 20 10 30l2 13c1 6 1 6 6 4 8-3 21-10 29-7-2 5-11 6-16 9-5 2-14 5-17 10-4 6 0 8 6 9 7 1 15-1 22 4-8 2-16 1-24 4-9 4-8 13-11 21s-9 16-13 23l-7 10c-5 5-7 5-2 10 3 3 10 15 15 14 8-2 9-17 15-21 6-5 17-2 25-7 7-5 12-14 13-23 1-5-1-18-9-13-2 1-17 19-16 6 0-4 12-16 16-16 8 1 16 12 16 19 1 15-6 30-21 37-7 3-14 1-19 7-6 7-10 14-19 18-3 1-5 1-8 4l-9 7c-9 7-18 11-28 15-3 2-13 4-15 7-2 2 3 9 4 12 4 11 3 22 7 32 12-8 26-18 42-14 17 5 21 18 19 34a80 80 0 0 1-36 59c-6 5-13 12-22 12l26-23c2-3 6-5 4-8-2-2-9 0-12-2-11-8 8-12 13-12 4 0 9 1 12-2 2-2 4-11 5-14-4 0-24 3-22-7 1-4 9-6 12-7 6-3 12-3 11-11-6-23-34-11-46 1l-8 11c-1 3-2 10-6 11-10 3-5-18-5-23s1-6-4-8c-3-1-7-2-10-5-3-1-7-5-6-9 2-5 12-1 15-2 5-3-1-16-4-20-1-3-6-7-4-11l15-3a194 194 0 0 0 41-21c4-4 8-6 5-10l-10-10c-4-2-7 2-11 4-8 6-17 11-26 15-22 10-46 11-69 13-24 2-47 3-71 3-6 0-11 0-16-2-4-1-6-3-9 1-2 4-1 13-2 17l-1 19c1 3 0 12 2 14 2 1 9-2 11-2 4 0 13 2 14 6 2 5-9 11-12 13s-10 5-10 9c-1 6 5 5 9 5 5-1 24-4 16 8-3 6-20 10-19 18 0 5 3 2 7 1 5-1 11-2 16-1 11 3 2 12-4 16-2 1-9 4-10 6-1 6 5 10 9 9 10-1 19-8 29-9 4-1 11 1 13-1 4-3 2-13 2-17 0-23-3-49-9-71-1-3-5-9-2-11 5-4 8 6 9 8 2 5 2 8 7 8 7 0 13-2 20-1 23 2 46 10 54 34 8 23 16 50 6 73-5 10-11 18-19 25-7 7-22 16-33 10 4-4 10-3 14-5a61 61 0 0 0 33-48c1-12-3-31-8-43-4-10-14-22-23-29-6-4-13-6-20-7-5 0-18-1-22 2-5 3-2 9-1 13l2 25v23l-2 8c1 4 2 2 4 4 3 3 2 10 2 14-2 8-6 9 1 14 10 6 14 20 7 30s-21 16-33 17c-13 1-30 2-41-4s-18-16-10-27c3-4 10-5 12-9 2-3-5-13-6-17l1-6-2-7-10-21c-5-15-3-32-9-46-4-10-22-13-32-12-5 1-10 3-13 8-1 2-4 11-1 13l6 1 11 4c7 4 8 10-1 12-3 1-11-1-12 2s5 11 8 13c5 3 14 0 19 4 7 6-6 10-11 12Zm242-181c-4-3-22-8-17-16 2-3 10-3 12-3 5-1 14 0 17-3 2-1 6-8 6-10-2-3-11-3-13-3-4-1-9-2-10-7s3-6 7-8l14-4c6 0 6 1 6-6 0-11-1-24-4-35-5-21-15-40-32-54-15-13-33-22-52-28-4-1-10-4-14-2l-6 11c-3 6-7 15-16 11-10-4-2-16-5-23-3-6-13-2-19-2-5 1-11 0-14 4-2 3-2 10-3 14s-1 10-6 10c-3 0-7-4-8-6-4-4-5-10-7-14-3-6-2-8-9-7-8 2-18 4-26 8-9 5-7 18-8 27-2 10-10 5-14-1-2-3-4-10-9-10-4 1-10 7-12 9-8 5-15 11-21 18-14 15-19 32-24 51-2 9 0 20 1 29 0 5 0 7 2 11 3 4 3 6 4 11 2 8 7 4 14 3 10 0 16 6 9 14-4 6-14 9-10 16 5 9 11 4 19 2 8-3 15-1 11 9-1 3-5 7-5 10s6 6 8 7c17 10 34 16 54 18 23 3 46 0 69-2 41-2 86-13 111-49Zm44-235c1-6-25 3-29 4-11 4-24 8-34 15-5 3-8 8-13 12l-12 11c-2 2-10 9-9 13 0 2 9 4 12 5a154 154 0 0 1 41 30c4 5 5 5 9 0 8-9 14-22 19-33 4-12 10-26 10-38-12 3-27 17-36 27l-14 17c-7 7-8 0-5-6 7-14 19-24 30-34l18-13c4-2 13-6 13-10ZM20 41c-2 0-9-1-10 2-2 3 4 14 5 17 2 4 3 14 7 16 3 2 13 1 17 2 12 2 23 9 34 16l13 9c4 4 6 11 12 7 5-3 8-9 13-13 4-3 12-6 10-11-1-4-10-9-13-11L92 64 60 47c-13-5-27-5-40-6Zm213 401c-1-9-18-3-24-2-6 2-24 7-25 13-1 5 5 11 3 16-1 4-4 4-8 6-5 3-9 10-5 16 6-4 7-8 14-6-1 5-4 7-8 12l9 4c3-1 2-5 4-7 3-3 10-5 10 0 1 2-4 5-4 7 1 2 7 1 9 1 3-1 1-1 3-3s1-5 5-5c4 1 2 4 5 5 2 1 6-1 8-2 8-3 15-9 15-18s-4-13-11-17c-7-5-2-13 0-20Zm-206 1c4 4 9 13 15 11 3-1 9-7 12-2 3 4-4 8-1 12 1 3 11 6 14 5 4-1 7-9 12-6 6 4-3 9 6 11 10 2 29 0 35-9-10-3-20-2-30-5-9-2-17-6-26-10-15-7-27-21-33-37s-5-36 8-49c12-12 30-20 46-12 1-3-2-15-7-13-2 1-1 5-5 5-2 0-3-1-5-3-4-4-5-9-12-6-5 2-3 1-2 6v8c-4 6-8-1-12-3-4-3-4-2-8 1-3 3-3 3-3 6 1 4 9 11 2 14-5 3-8-5-13-2l-4 8c0 3 4 5 6 7 1 2 4 5 1 7-2 3-6-1-9 0l-3 2v12c3 4 13 1 14 7 0 6-10 4-11 7s6 15 8 16c4 2 12-5 13 3 1 4-4 9-8 9Z"/><path class="cls-1" d="m316 490 30-2 11-3c1-2-4-4-5-5 4-1 12 1 11-4 0-3-11-2-14-4l8-5c-6-4-13-4-18-9 13-9 40 9 31 25-7 15-41 11-54 9v-2ZM398 218c1-3 4-11 7-13 4-2 7 1 7 5-1 3-5 11-8 13-4 3-4 0-6-5ZM277 238c5-3 8-5 11-9 2-2 4-5 6-1 2 2-2 6-3 8l-11 7v11c0 5-1 11-3 16-2 8-6 15-14 19-15 8-28-2-34-16l-4-17c-1-3 0-7-3-9-2-3-8-3-11-5-4-3-5-6-6-10 6 3 10 8 17 9s16 0 21-4c16-13-14-18-8-28 2-4 20-7 24-6 6 2 5 7 3 13-2 4-4 4-3 8l3 6c4 6 9 7 15 8Zm-4 13c-2-8-4-8-10-12-3-2-6-5-9-4s-5 5-7 6l-8 4-10 2c-2 3 4 13 5 17 4 11 9 26 23 21 13-5 14-23 16-34Zm-17-43c-4 1-15 3-10 9 5 7 11-5 10-9ZM312 179c0 6-3 16-11 17-9 2-12-10-12-17s2-16 11-17c10-1 11 9 12 17ZM192 188c0 6-1 16-10 15-7 0-11-9-11-15-2-21 20-16 21 0ZM307 114l-14 19c-2 3-13 19-17 19-11 0 5-16 6-18 7-7 15-17 23-21l2 1ZM158 136l30 9c3 2 22 11 13 15-5 2-17-10-22-12-7-3-20-4-25-10l4-2Z"/></svg>