<?xml version="1.0" encoding="UTF-8"?><svg id="Layer_1" xmlns="http://www.w3.org/2000/svg" viewBox="0 0 125 125"><defs><style>.cls-1{fill:#fff;}</style></defs><rect width="125" height="125" rx="19.9" ry="19.9"/><path class="cls-1" d="m40.63,102.05l3.18,3.7,2.94,2.31c-1.36,1.15-3.18,1.15-4.53,2.31-1.36.92-2.04,2.77-2.04,4.38.23,3.46,5.44,1.61,7.48,2.54-1.13.92-4.53,1.15-6.12.92-.9-.23-1.58-.69-2.26-1.39-.9-1.15-.45-1.61-1.13-2.77-.23-.69-.23-.46-1.13-.23-1.13.46-2.26.69-3.63.69-2.26,0-4.76-.46-7.02-1.15-8.96-2.92-14.58-11.95-13.37-21.46,1.36-7.61,12.46-18,19.26-9.69.9.92,2.04,3.7-.23,4.15-.68,0-1.58-.69-2.26-.92-1.13-.23-2.26,0-3.18.46-4.53,1.61-7.25,5.31-6.57,10.15.9,5.53,4.53,9.23,9.29,11.3,2.26,1.15,4.53,1.85,7.02,2.07,2.94.46,4.76-.23,7.25-2.07-4.31-3.7-8.83-9.69-9.75-15.45-.45-3.23.68-6.23,3.86-6.92,3.18-.69,5.44.69,8.38,1.39,0-4.38-.45-8.31.68-12.69.23-.92.45-.92-.23-1.61s-2.26-1.15-3.18-1.61c-3.55-1.58-6.67-4.03-9.07-7.15-.45-.46-.9-1.61-1.58-1.61-.45,0-1.36,1.39-1.81,1.61l-3.63,5.07c-.9,1.39-1.81,3.46-3.18,4.38,0-2.31,1.81-5.07,3.18-7.15l2.26-3.23c.68-.92,2.04-2.07,2.04-3.23,0-4.15-12.69,2.77-14.5,3l-.23-.46c2.94-1.61,5.67-3.7,8.83-4.85.9-.46,3.63-.46,4.31-1.39.45-.69,0-2.54-.45-3-1.36-1.61-6.34,0-8.15.46l-4.53,1.15c-1.13.23-2.94,1.15-4.08.46,1.13-1.39,4.08-1.85,5.67-2.54,2.04-.46,4.08-1.15,6.34-1.39.9-.23,2.71,0,3.63-.46.68-.23.45-.23.45-1.15v-7.38l1.36-6.23c.45-1.61,2.26-3.23,1.36-4.85s-2.71-3-4.08-4.15c-1.58-1.39-3.4-2.54-5.44-3.46-.45-.23-4.53-1.61-4.99-1.15-.45.69,2.49,5.07,2.71,5.53l3.18,5.31,1.81,2.54c.23.23,1.81,1.61,1.58,2.07-.23,1.15-2.71-1.39-2.94-1.61-1.58-1.61-2.71-3.46-3.86-5.31-2.26-3.92-4.31-8.07-5.89-12.45-.42-1.38-1.78-4.14-1.56-5.76.45-1.15,4.31-.46,5.67-.46,4.53,0,8.83,1.15,13.14,2.77l6.12,2.54,5.67,3.92c1.58.69,3.86-1.15,5.44-1.85,2.04-.92,4.31-1.85,6.8-2.31,6.69-1.52,13.61-1.75,20.39-.69.9.23,2.26.69,3.4.46.9-.23,2.04-1.39,2.71-2.07,5.36-3.89,11.24-7,17.45-9.23,2.26-.46,4.76-1.61,6.8-1.61,2.71,0,1.81,2.77,1.36,4.61l-1.81,7.15c-.68,2.54-1.58,4.61-2.71,6.92-.68,2.07-1.58,4.15-3.4,5.53-.45.46-1.58.69-1.58,1.39,0,.92,1.36,2.54,1.81,3.23.9,2.31,1.81,4.61,2.26,6.92l.45,3c.15.92.6,1.23,1.36.92,1.81-.69,4.76-2.31,6.57-1.61-.45,1.15-2.49,1.39-3.63,2.07-1.13.46-3.18,1.15-3.86,2.31-.9,1.39,0,1.85,1.36,2.07,1.58.23,3.4-.23,4.99.92-1.81.46-3.63.23-5.44.92-2.04.92-1.81,3-2.49,4.85s-2.04,3.7-2.94,5.31l-1.58,2.31c-1.13,1.15-1.58,1.15-.45,2.31.68.69,2.26,3.46,3.4,3.23,1.81-.46,2.04-3.92,3.4-4.85,1.36-1.15,3.86-.46,5.67-1.61,1.58-1.15,2.71-3.23,2.94-5.31.23-1.15-.23-4.15-2.04-3-.45.23-3.86,4.38-3.63,1.39,0-.92,2.71-3.7,3.63-3.7,1.81.23,3.63,2.77,3.63,4.38.23,3.46-1.36,6.92-4.76,8.53-1.58.69-3.18.23-4.31,1.61-1.36,1.61-2.26,3.23-4.31,4.15-.68.23-1.13.23-1.81.92l-2.04,1.61c-2.04,1.61-4.08,2.54-6.34,3.46-.68.46-2.94.92-3.4,1.61-.45.46.68,2.07.9,2.77.9,2.54.68,5.07,1.58,7.38,2.71-1.85,5.89-4.15,9.52-3.23,3.86,1.15,4.76,4.15,4.31,7.84-.56,5.56-3.55,10.57-8.15,13.61-1.36,1.15-2.94,2.77-4.99,2.77l5.89-5.31c.45-.69,1.36-1.15.9-1.85-.45-.46-2.04,0-2.71-.46-2.49-1.85,1.81-2.77,2.94-2.77.9,0,2.04.23,2.71-.46.45-.46.9-2.54,1.13-3.23-.9,0-5.44.69-4.99-1.61.23-.92,2.04-1.39,2.71-1.61,1.36-.69,2.71-.69,2.49-2.54-1.36-5.31-7.7-2.54-10.43.23l-1.81,2.54c-.23.69-.45,2.31-1.36,2.54-2.26.69-1.13-4.15-1.13-5.31s.23-1.39-.9-1.85c-.68-.23-1.58-.46-2.26-1.15-.68-.23-1.58-1.15-1.36-2.07.45-1.15,2.71-.23,3.4-.46,1.13-.69-.23-3.7-.9-4.61-.23-.69-1.36-1.61-.9-2.54l3.4-.69c3.27-1.23,6.39-2.86,9.29-4.85.9-.92,1.81-1.39,1.13-2.31l-2.26-2.31c-.9-.46-1.58.46-2.49.92-1.81,1.39-3.86,2.54-5.89,3.46-4.99,2.31-10.43,2.54-15.64,3-5.44.46-10.65.69-16.09.69-1.36,0-2.49,0-3.63-.46-.9-.23-1.36-.69-2.04.23-.45.92-.23,3-.45,3.92l-.23,4.38c.23.69,0,2.77.45,3.23.45.23,2.04-.46,2.49-.46.9,0,2.94.46,3.18,1.39.45,1.15-2.04,2.54-2.71,3s-2.26,1.15-2.26,2.07c-.23,1.39,1.13,1.15,2.04,1.15,1.13-.23,5.44-.92,3.63,1.85-.68,1.39-4.53,2.31-4.31,4.15,0,1.15.68.46,1.58.23,1.13-.23,2.49-.46,3.63-.23,2.49.69.45,2.77-.9,3.7-.45.23-2.04.92-2.26,1.39-.23,1.39,1.13,2.31,2.04,2.07,2.26-.23,4.31-1.85,6.57-2.07.9-.23,2.49.23,2.94-.23.9-.69.45-3,.45-3.92,0-5.31-.68-11.3-2.04-16.37-.23-.69-1.13-2.07-.45-2.54,1.13-.92,1.81,1.39,2.04,1.85.45,1.15.45,1.85,1.58,1.85,1.58,0,2.94-.46,4.53-.23,5.21.46,10.43,2.31,12.24,7.84,1.81,5.31,3.63,11.53,1.36,16.84-1.13,2.31-2.49,4.15-4.31,5.77-1.58,1.61-4.99,3.7-7.48,2.31.9-.92,2.26-.69,3.18-1.15,4.18-2.16,6.99-6.33,7.48-11.08.23-2.77-.68-7.15-1.81-9.92-.9-2.31-3.18-5.07-5.21-6.69-1.36-.92-2.94-1.39-4.53-1.61-1.13,0-4.08-.23-4.99.46-1.13.69-.45,2.07-.23,3l.45,5.77v5.31l-.45,1.85c.23.92.45.46.9.92.68.69.45,2.31.45,3.23-.45,1.85-1.36,2.07.23,3.23,2.26,1.39,3.18,4.61,1.58,6.92-1.58,2.31-4.76,3.7-7.48,3.92-2.94.23-6.8.46-9.29-.92s-4.08-3.7-2.26-6.23c.68-.92,2.26-1.15,2.71-2.07.45-.69-1.13-3-1.36-3.92l.23-1.39-.45-1.61-2.26-4.85c-1.13-3.46-.68-7.38-2.04-10.61-.9-2.31-4.99-3-7.25-2.77-1.13.23-2.26.69-2.94,1.85-.23.46-.9,2.54-.23,3l1.36.23,2.49.92c1.58.92,1.81,2.31-.23,2.77-.68.23-2.49-.23-2.71.46s1.13,2.54,1.81,3c1.13.69,3.18,0,4.31.92,1.58,1.39-1.36,2.31-2.49,2.77l-.03-.03Zm54.84-41.75c-.9-.69-4.99-1.85-3.86-3.7.45-.69,2.26-.69,2.71-.69,1.13-.23,3.18,0,3.86-.69.45-.23,1.36-1.85,1.36-2.31-.45-.69-2.49-.69-2.94-.69-.9-.23-2.04-.46-2.26-1.61s.68-1.39,1.58-1.85l3.18-.92c1.36,0,1.36.23,1.36-1.39,0-2.54-.23-5.53-.9-8.07-1.13-4.85-3.4-9.23-7.25-12.45-3.4-3-7.48-5.07-11.78-6.46-.9-.23-2.26-.92-3.18-.46l-1.36,2.54c-.68,1.39-1.58,3.46-3.63,2.54-2.26-.92-.45-3.7-1.13-5.31-.68-1.39-2.94-.46-4.31-.46-1.13.23-2.49,0-3.18.92-.45.69-.45,2.31-.68,3.23s-.23,2.31-1.36,2.31c-.68,0-1.58-.92-1.81-1.39-.9-.92-1.13-2.31-1.58-3.23-.68-1.39-.45-1.85-2.04-1.61-1.81.46-4.08.92-5.89,1.85-2.04,1.15-1.58,4.15-1.81,6.23-.45,2.31-2.26,1.15-3.18-.23-.45-.69-.9-2.31-2.04-2.31-.9.23-2.26,1.61-2.71,2.07-1.81,1.15-3.4,2.54-4.76,4.15-3.18,3.46-4.31,7.38-5.44,11.76-.45,2.07,0,4.61.23,6.69,0,1.15,0,1.61.45,2.54.68.92.68,1.39.9,2.54.45,1.85,1.58.92,3.18.69,2.26,0,3.63,1.39,2.04,3.23-.9,1.39-3.18,2.07-2.26,3.7,1.13,2.07,2.49.92,4.31.46,1.81-.69,3.4-.23,2.49,2.07-.23.69-1.13,1.61-1.13,2.31s1.36,1.39,1.81,1.61c3.86,2.31,7.7,3.7,12.24,4.15,5.21.69,10.43,0,15.64-.46,9.29-.46,19.49-3,25.15-11.3h0Zm9.97-54.2c.23-1.39-5.67.69-6.57.92-2.49.92-5.44,1.85-7.7,3.46-1.13.69-1.81,1.85-2.94,2.77l-2.71,2.54c-.45.46-2.26,2.07-2.04,3,0,.46,2.04.92,2.71,1.15,3.45,1.76,6.59,4.11,9.29,6.92.9,1.15,1.13,1.15,2.04,0,1.81-2.07,3.18-5.07,4.31-7.61.9-2.77,2.26-6,2.26-8.77-2.71.69-6.12,3.92-8.15,6.23l-3.18,3.92c-1.58,1.61-1.81,0-1.13-1.39,1.58-3.23,4.31-5.53,6.8-7.84l4.08-3c.9-.46,2.94-1.39,2.94-2.31h0ZM16.61,13.02c-.45,0-2.04-.23-2.26.46-.45.69.9,3.23,1.13,3.92.45.92.68,3.23,1.58,3.7.68.46,2.94.23,3.86.46,2.71.46,5.21,2.07,7.7,3.7l2.94,2.07c.9.92,1.36,2.54,2.71,1.61,1.13-.69,1.81-2.07,2.94-3,.9-.69,2.71-1.39,2.26-2.54-.23-.92-2.26-2.07-2.94-2.54l-3.63-2.54-7.25-3.92c-2.94-1.15-6.12-1.15-9.07-1.39h.02Zm48.27,92.5c-.23-2.07-4.08-.69-5.44-.46-1.36.46-5.44,1.61-5.67,3-.23,1.15,1.13,2.54.68,3.7-.23.92-.9.92-1.81,1.39-1.13.69-2.04,2.31-1.13,3.7,1.36-.92,1.58-1.85,3.18-1.39-.23,1.15-.9,1.61-1.81,2.77l2.04.92c.68-.23.45-1.15.9-1.61.68-.69,2.26-1.15,2.26,0,.23.46-.9,1.15-.9,1.61.23.46,1.58.23,2.04.23.68-.23.23-.23.68-.69s.23-1.15,1.13-1.15c.9.23.45.92,1.13,1.15.45.23,1.36-.23,1.81-.46,1.81-.69,3.4-2.07,3.4-4.15s-.9-3-2.49-3.92c-1.58-1.15-.45-3,0-4.61v-.02Zm-46.68.23c.9.92,2.04,3,3.4,2.54.68-.23,2.04-1.61,2.71-.46.68.92-.9,1.85-.23,2.77.23.69,2.49,1.39,3.18,1.15.9-.23,1.58-2.07,2.71-1.39,1.36.92-.68,2.07,1.36,2.54,2.26.46,6.57,0,7.93-2.07-2.26-.69-4.53-.46-6.8-1.15-2.04-.46-3.86-1.39-5.89-2.31-3.4-1.61-6.12-4.85-7.48-8.53s-1.13-8.31,1.81-11.3c2.71-2.77,6.8-4.61,10.43-2.77.23-.69-.45-3.46-1.58-3-.45.23-.23,1.15-1.13,1.15-.45,0-.68-.23-1.13-.69-.9-.92-1.13-2.07-2.71-1.39-1.13.46-.68.23-.45,1.39v1.85c-.9,1.39-1.81-.23-2.71-.69-.9-.69-.9-.46-1.81.23-.45.46-.68.92-.68,1.39.23.92,2.04,2.54.45,3.23-1.13.69-1.81-1.15-2.94-.46l-.9,1.85c0,.69.9,1.15,1.36,1.61.23.46.9,1.15.23,1.61-.45.69-1.36-.23-2.04,0l-.68.46v2.77c.68.92,2.94.23,3.18,1.61,0,1.39-2.26.92-2.49,1.61s1.36,3.46,1.81,3.7c.9.46,2.71-1.15,2.94.69.23.92-.9,2.07-1.81,2.07h-.03Z"/><path class="cls-1" d="m83.69,116.59l6.8-.46,2.49-.69c.23-.46-.9-.92-1.13-1.15.9-.23,2.71.23,2.49-.92,0-.69-2.49-.46-3.18-.92l1.81-1.15c-1.36-.92-2.94-.92-4.08-2.07,2.94-2.07,9.07,2.07,7.02,5.77-1.58,3.46-9.29,2.54-12.24,2.07v-.46h.02Zm18.58-62.75c.23-.69.9-2.54,1.58-3,.9-.46,1.58.23,1.58,1.15-.23.69-1.13,2.54-1.81,3-.9.69-.9,0-1.36-1.15Zm-27.42,4.61c1.13-.69,1.81-1.15,2.49-2.07.45-.46.9-1.15,1.36-.23.45.46-.45,1.39-.68,1.85l-2.49,1.61v2.54c0,1.15-.23,2.54-.68,3.7-.45,1.85-1.36,3.46-3.18,4.38-3.4,1.85-6.34-.46-7.7-3.7l-.9-3.92c-.23-.69,0-1.61-.68-2.07-.45-.69-1.81-.69-2.49-1.15-.9-.69-1.13-1.39-1.36-2.31,1.36.69,2.26,1.85,3.86,2.07s3.63,0,4.76-.92c3.63-3-3.18-4.15-1.81-6.46.45-.92,4.53-1.61,5.44-1.39,1.36.46,1.13,1.61.68,3-.45.92-.9.92-.68,1.85l.68,1.39c.9,1.39,2.04,1.61,3.4,1.85h-.02Zm-.9,3c-.45-1.85-.9-1.85-2.26-2.77-.68-.46-1.36-1.15-2.04-.92s-1.13,1.15-1.58,1.39l-1.81.92-2.26.46c-.45.69.9,3,1.13,3.92.9,2.54,2.04,6,5.21,4.85,2.94-1.15,3.18-5.31,3.63-7.84h-.02Zm-3.86-9.92c-.9.23-3.4.69-2.26,2.07,1.13,1.61,2.49-1.15,2.26-2.07Zm12.69-6.69c0,1.39-.68,3.7-2.49,3.92-2.04.46-2.71-2.31-2.71-3.92s.45-3.7,2.49-3.92c2.26-.23,2.49,2.07,2.71,3.92Zm-27.2,2.07c0,1.39-.23,3.7-2.26,3.46-1.58,0-2.49-2.07-2.49-3.46-.45-4.85,4.53-3.7,4.76,0h0Zm26.06-17.07l-3.18,4.38c-.45.69-2.94,4.38-3.86,4.38-2.49,0,1.13-3.7,1.36-4.15,1.58-1.61,3.4-3.92,5.21-4.85l.45.23h0Zm-33.77,5.07l6.8,2.07c.68.46,4.99,2.54,2.94,3.46-1.13.46-3.86-2.31-4.99-2.77-1.58-.69-4.53-.92-5.67-2.31l.9-.46h0Z"/></svg>