<?xml version="1.0" encoding="UTF-8"?>
<svg version="1.1" viewBox="0 0 125 125" xmlns="http://www.w3.org/2000/svg">
    <defs>
        <style>
			.cls-1{fill:#000;}
			@media (prefers-color-scheme: dark) {.cls-1 { fill: #fff }}
		</style>
    </defs>
    <path class="cls-1" d="m39.3 105 3.38 3.93 3.12 2.45c-1.44 1.22-3.38 1.22-4.81 2.45-1.44 0.977-2.17 2.94-2.17 4.65 0.244 3.67 5.78 1.71 7.94 2.7-1.2 0.977-4.81 1.22-6.5 0.977-0.956-0.244-1.68-0.733-2.4-1.48-0.956-1.22-0.478-1.71-1.2-2.94-0.244-0.733-0.244-0.489-1.2-0.244-1.2 0.489-2.4 0.733-3.85 0.733-2.4 0-5.06-0.489-7.46-1.22-9.52-3.1-15.5-12.7-14.2-22.8 1.44-8.08 13.2-19.1 20.5-10.3 0.956 0.977 2.17 3.93-0.244 4.41-0.722 0-1.68-0.733-2.4-0.977-1.2-0.244-2.4 0-3.38 0.489-4.81 1.71-7.7 5.64-6.98 10.8 0.956 5.87 4.81 9.8 9.87 12 2.4 1.22 4.81 1.96 7.46 2.2 3.12 0.489 5.06-0.244 7.7-2.2-4.58-3.93-9.38-10.3-10.4-16.4-0.478-3.43 0.722-6.62 4.1-7.35 3.38-0.733 5.78 0.733 8.9 1.48 0-4.65-0.478-8.83 0.722-13.5 0.244-0.977 0.478-0.977-0.244-1.71-0.722-0.733-2.4-1.22-3.38-1.71-3.77-1.68-7.08-4.28-9.63-7.59-0.478-0.489-0.956-1.71-1.68-1.71-0.478 0-1.44 1.48-1.92 1.71l-3.85 5.38c-0.956 1.48-1.92 3.67-3.38 4.65 0-2.45 1.92-5.38 3.38-7.59l2.4-3.43c0.722-0.977 2.17-2.2 2.17-3.43 0-4.41-13.5 2.94-15.4 3.19l-0.244-0.489c3.12-1.71 6.02-3.93 9.38-5.15 0.956-0.489 3.85-0.489 4.58-1.48 0.478-0.733 0-2.7-0.478-3.19-1.44-1.71-6.73 0-8.66 0.489l-4.81 1.22c-1.2 0.244-3.12 1.22-4.33 0.489 1.2-1.48 4.33-1.96 6.02-2.7 2.17-0.489 4.33-1.22 6.73-1.48 0.956-0.244 2.88 0 3.85-0.489 0.722-0.244 0.478-0.244 0.478-1.22v-7.84l1.44-6.62c0.478-1.71 2.4-3.43 1.44-5.15-0.956-1.72-2.88-3.19-4.33-4.41-1.68-1.48-3.61-2.7-5.78-3.67-0.478-0.244-4.81-1.71-5.3-1.22-0.478 0.733 2.64 5.38 2.88 5.87l3.38 5.64 1.92 2.7c0.244 0.244 1.92 1.71 1.68 2.2-0.244 1.22-2.88-1.48-3.12-1.71-1.68-1.71-2.88-3.67-4.1-5.64-2.4-4.16-4.58-8.57-6.26-13.2-0.446-1.47-1.89-4.4-1.66-6.12 0.478-1.22 4.58-0.489 6.02-0.489 4.81 0 9.38 1.22 14 2.94l6.5 2.7 6.02 4.16c1.68 0.733 4.1-1.22 5.78-1.96 2.17-0.977 4.58-1.96 7.22-2.45 7.1-1.61 14.5-1.86 21.7-0.733 0.956 0.244 2.4 0.733 3.61 0.489 0.956-0.244 2.17-1.48 2.88-2.2 5.69-4.13 11.9-7.43 18.5-9.8 2.4-0.489 5.06-1.71 7.22-1.71 2.88 0 1.92 2.94 1.44 4.9l-1.92 7.59c-0.722 2.7-1.68 4.9-2.88 7.35-0.722 2.2-1.68 4.41-3.61 5.87-0.478 0.489-1.68 0.733-1.68 1.48 0 0.977 1.44 2.7 1.92 3.43 0.956 2.45 1.92 4.9 2.4 7.35l0.478 3.19c0.159 0.977 0.637 1.31 1.44 0.977 1.92-0.733 5.06-2.45 6.98-1.71-0.478 1.22-2.64 1.48-3.85 2.2-1.2 0.489-3.38 1.22-4.1 2.45-0.956 1.48 0 1.96 1.44 2.2 1.68 0.244 3.61-0.244 5.3 0.977-1.92 0.489-3.85 0.244-5.78 0.977-2.17 0.977-1.92 3.19-2.64 5.15-0.722 1.96-2.17 3.93-3.12 5.64l-1.68 2.45c-1.2 1.22-1.68 1.22-0.478 2.45 0.722 0.733 2.4 3.67 3.61 3.43 1.92-0.489 2.17-4.16 3.61-5.15 1.44-1.22 4.1-0.489 6.02-1.71 1.68-1.22 2.88-3.43 3.12-5.64 0.244-1.22-0.244-4.41-2.17-3.19-0.478 0.244-4.1 4.65-3.85 1.48 0-0.977 2.88-3.93 3.85-3.93 1.92 0.244 3.85 2.94 3.85 4.65 0.244 3.67-1.44 7.35-5.06 9.06-1.68 0.733-3.38 0.244-4.58 1.71-1.44 1.71-2.4 3.43-4.58 4.41-0.722 0.244-1.2 0.244-1.92 0.977l-2.17 1.71c-2.17 1.71-4.33 2.7-6.73 3.67-0.722 0.489-3.12 0.977-3.61 1.71-0.478 0.489 0.722 2.2 0.956 2.94 0.956 2.7 0.722 5.38 1.68 7.84 2.88-1.96 6.26-4.41 10.1-3.43 4.1 1.22 5.06 4.41 4.58 8.33-0.595 5.9-3.77 11.2-8.66 14.5-1.44 1.22-3.12 2.94-5.3 2.94l6.26-5.64c0.478-0.733 1.44-1.22 0.956-1.96-0.478-0.489-2.17 0-2.88-0.489-2.64-1.96 1.92-2.94 3.12-2.94 0.956 0 2.17 0.244 2.88-0.489 0.478-0.489 0.956-2.7 1.2-3.43-0.956 0-5.78 0.733-5.3-1.71 0.244-0.977 2.17-1.48 2.88-1.71 1.44-0.733 2.88-0.733 2.64-2.7-1.44-5.64-8.18-2.7-11.1 0.244l-1.92 2.7c-0.244 0.733-0.478 2.45-1.44 2.7-2.4 0.733-1.2-4.41-1.2-5.64s0.244-1.48-0.956-1.96c-0.722-0.244-1.68-0.489-2.4-1.22-0.722-0.244-1.68-1.22-1.44-2.2 0.478-1.22 2.88-0.244 3.61-0.489 1.2-0.733-0.244-3.93-0.956-4.9-0.244-0.733-1.44-1.71-0.956-2.7l3.61-0.733c3.47-1.31 6.79-3.04 9.87-5.15 0.956-0.977 1.92-1.48 1.2-2.45l-2.4-2.45c-0.956-0.489-1.68 0.489-2.64 0.977-1.92 1.48-4.1 2.7-6.26 3.67-5.3 2.45-11.1 2.7-16.6 3.19-5.78 0.489-11.3 0.733-17.1 0.733-1.44 0-2.64 0-3.85-0.489-0.956-0.244-1.44-0.733-2.17 0.244-0.478 0.977-0.244 3.19-0.478 4.16l-0.244 4.65c0.244 0.733 0 2.94 0.478 3.43 0.478 0.244 2.17-0.489 2.64-0.489 0.956 0 3.12 0.489 3.38 1.48 0.478 1.22-2.17 2.7-2.88 3.19-0.712 0.489-2.4 1.22-2.4 2.2-0.244 1.48 1.2 1.22 2.17 1.22 1.2-0.244 5.78-0.977 3.85 1.96-0.722 1.48-4.81 2.45-4.58 4.41 0 1.22 0.722 0.489 1.68 0.244 1.2-0.244 2.64-0.489 3.85-0.244 2.64 0.733 0.478 2.94-0.956 3.93-0.478 0.244-2.17 0.977-2.4 1.48-0.244 1.48 1.2 2.45 2.17 2.2 2.4-0.244 4.58-1.96 6.98-2.2 0.956-0.244 2.64 0.244 3.12-0.244 0.956-0.733 0.478-3.19 0.478-4.16 0-5.64-0.722-12-2.17-17.4-0.244-0.733-1.2-2.2-0.478-2.7 1.2-0.977 1.92 1.48 2.17 1.96 0.478 1.22 0.478 1.96 1.68 1.96 1.68 0 3.12-0.489 4.81-0.244 5.53 0.489 11.1 2.45 13 8.33 1.92 5.64 3.85 12.2 1.44 17.9-1.2 2.45-2.64 4.41-4.58 6.13-1.68 1.71-5.3 3.93-7.94 2.45 0.956-0.977 2.4-0.733 3.38-1.22 4.44-2.29 7.42-6.72 7.94-11.8 0.244-2.94-0.722-7.59-1.92-10.5-0.956-2.45-3.38-5.38-5.53-7.1-1.44-0.977-3.12-1.48-4.81-1.71-1.2 0-4.33-0.244-5.3 0.489-1.2 0.733-0.478 2.2-0.244 3.19l0.478 6.13v5.64l-0.478 1.96c0.244 0.977 0.478 0.489 0.956 0.977 0.722 0.733 0.478 2.45 0.478 3.43-0.478 1.96-1.44 2.2 0.244 3.43 2.4 1.48 3.38 4.9 1.68 7.35-1.68 2.45-5.06 3.93-7.94 4.16-3.12 0.244-7.22 0.488-9.87-0.977-2.64-1.47-4.33-3.93-2.4-6.62 0.722-0.977 2.4-1.22 2.88-2.2 0.478-0.733-1.2-3.19-1.44-4.16l0.244-1.48-0.478-1.71-2.4-5.15c-1.2-3.67-0.722-7.84-2.17-11.3-0.956-2.45-5.3-3.19-7.7-2.94-1.2 0.244-2.4 0.733-3.12 1.96-0.244 0.489-0.956 2.7-0.244 3.19l1.44 0.244 2.64 0.977c1.68 0.977 1.92 2.45-0.244 2.94-0.722 0.244-2.64-0.244-2.88 0.489s1.2 2.7 1.92 3.19c1.2 0.733 3.38 0 4.58 0.977 1.68 1.48-1.44 2.45-2.64 2.94l-0.0319-0.0319zm58.2-44.3c-0.956-0.733-5.3-1.96-4.1-3.93 0.478-0.733 2.4-0.733 2.88-0.733 1.2-0.244 3.38 0 4.1-0.733 0.478-0.244 1.44-1.96 1.44-2.45-0.478-0.733-2.64-0.733-3.12-0.733-0.956-0.244-2.17-0.489-2.4-1.71s0.722-1.48 1.68-1.96l3.38-0.977c1.44 0 1.44 0.244 1.44-1.48 0-2.7-0.244-5.87-0.956-8.57-1.2-5.15-3.61-9.8-7.7-13.2-3.61-3.19-7.94-5.38-12.5-6.86-0.956-0.244-2.4-0.977-3.38-0.489l-1.44 2.7c-0.722 1.48-1.68 3.67-3.85 2.7-2.4-0.977-0.478-3.93-1.2-5.64-0.722-1.48-3.12-0.489-4.58-0.489-1.2 0.244-2.64 0-3.38 0.977-0.478 0.733-0.478 2.45-0.722 3.43s-0.244 2.45-1.44 2.45c-0.722 0-1.68-0.977-1.92-1.48-0.956-0.977-1.2-2.45-1.68-3.43-0.722-1.48-0.478-1.96-2.17-1.71-1.92 0.489-4.33 0.977-6.26 1.96-2.17 1.22-1.68 4.41-1.92 6.62-0.478 2.45-2.4 1.22-3.38-0.244-0.478-0.733-0.956-2.45-2.17-2.45-0.956 0.244-2.4 1.71-2.88 2.2-1.92 1.22-3.61 2.7-5.06 4.41-3.38 3.67-4.58 7.84-5.78 12.5-0.478 2.2 0 4.9 0.244 7.1 0 1.22 0 1.71 0.478 2.7 0.722 0.977 0.722 1.48 0.956 2.7 0.478 1.96 1.68 0.977 3.38 0.733 2.4 0 3.85 1.48 2.17 3.43-0.956 1.48-3.38 2.2-2.4 3.93 1.2 2.2 2.64 0.977 4.58 0.489 1.92-0.733 3.61-0.244 2.64 2.2-0.244 0.733-1.2 1.71-1.2 2.45s1.44 1.48 1.92 1.71c4.1 2.45 8.18 3.93 13 4.41 5.53 0.733 11.1 0 16.6-0.489 9.87-0.489 20.7-3.19 26.7-12zm10.6-57.6c0.244-1.48-6.02 0.733-6.98 0.977-2.64 0.977-5.78 1.96-8.18 3.67-1.2 0.733-1.92 1.96-3.12 2.94l-2.88 2.7c-0.478 0.489-2.4 2.2-2.17 3.19 0 0.489 2.17 0.977 2.88 1.22 3.66 1.87 7 4.36 9.87 7.35 0.956 1.22 1.2 1.22 2.17 0 1.92-2.2 3.38-5.38 4.58-8.08 0.956-2.94 2.4-6.37 2.4-9.31-2.88 0.733-6.5 4.16-8.66 6.62l-3.38 4.16c-1.68 1.71-1.92 0-1.2-1.48 1.68-3.43 4.58-5.87 7.22-8.33l4.33-3.19c0.956-0.489 3.12-1.48 3.12-2.45zm-94.3 7.35c-0.478 0-2.17-0.244-2.4 0.489-0.478 0.733 0.956 3.43 1.2 4.16 0.478 0.977 0.722 3.43 1.68 3.93 0.722 0.489 3.12 0.244 4.1 0.489 2.88 0.489 5.53 2.2 8.18 3.93l3.12 2.2c0.956 0.977 1.44 2.7 2.88 1.71 1.2-0.733 1.92-2.2 3.12-3.19 0.956-0.733 2.88-1.48 2.4-2.7-0.244-0.977-2.4-2.2-3.12-2.7l-3.85-2.7-7.7-4.16c-3.12-1.22-6.5-1.22-9.63-1.48h0.0212zm51.3 98.2c-0.244-2.2-4.33-0.733-5.78-0.489-1.44 0.489-5.78 1.71-6.02 3.19-0.244 1.22 1.2 2.7 0.722 3.93-0.244 0.977-0.956 0.977-1.92 1.48-1.2 0.733-2.17 2.45-1.2 3.93 1.44-0.977 1.68-1.96 3.38-1.48-0.244 1.22-0.956 1.71-1.92 2.94l2.17 0.977c0.722-0.244 0.478-1.22 0.956-1.71 0.722-0.733 2.4-1.22 2.4 0 0.244 0.489-0.956 1.22-0.956 1.71 0.244 0.489 1.68 0.244 2.17 0.244 0.722-0.244 0.244-0.244 0.722-0.733 0.478-0.489 0.244-1.22 1.2-1.22 0.956 0.244 0.478 0.977 1.2 1.22 0.478 0.244 1.44-0.244 1.92-0.489 1.92-0.733 3.61-2.2 3.61-4.41s-0.956-3.19-2.64-4.16c-1.68-1.22-0.478-3.19 0-4.9v-0.0212zm-49.6 0.244c0.956 0.977 2.17 3.19 3.61 2.7 0.722-0.244 2.17-1.71 2.88-0.489 0.722 0.977-0.956 1.96-0.244 2.94 0.244 0.733 2.64 1.48 3.38 1.22 0.956-0.244 1.68-2.2 2.88-1.48 1.44 0.977-0.722 2.2 1.44 2.7 2.4 0.489 6.98 0 8.42-2.2-2.4-0.733-4.81-0.489-7.22-1.22-2.17-0.489-4.1-1.48-6.26-2.45-3.61-1.71-6.5-5.15-7.94-9.06-1.44-3.91-1.2-8.83 1.92-12 2.88-2.94 7.22-4.9 11.1-2.94 0.244-0.733-0.478-3.67-1.68-3.19-0.478 0.244-0.244 1.22-1.2 1.22-0.478 0-0.722-0.244-1.2-0.733-0.956-0.977-1.2-2.2-2.88-1.48-1.2 0.489-0.722 0.244-0.478 1.48v1.96c-0.956 1.48-1.92-0.244-2.88-0.733-0.956-0.733-0.956-0.489-1.92 0.244-0.478 0.489-0.722 0.977-0.722 1.48 0.244 0.977 2.17 2.7 0.478 3.43-1.2 0.733-1.92-1.22-3.12-0.489l-0.956 1.96c0 0.733 0.956 1.22 1.44 1.71 0.244 0.489 0.956 1.22 0.244 1.71-0.478 0.733-1.44-0.244-2.17 0l-0.722 0.489v2.94c0.722 0.977 3.12 0.244 3.38 1.71 0 1.48-2.4 0.977-2.64 1.71-0.244 0.733 1.44 3.67 1.92 3.93 0.956 0.488 2.88-1.22 3.12 0.733 0.244 0.977-0.956 2.2-1.92 2.2h-0.0319z" style="stroke-width:1.06"/>
    <path class="cls-1" d="m85 120 7.22-0.489 2.64-0.733c0.244-0.489-0.956-0.977-1.2-1.22 0.956-0.244 2.88 0.244 2.64-0.977 0-0.733-2.64-0.489-3.38-0.977l1.92-1.22c-1.44-0.977-3.12-0.977-4.33-2.2 3.12-2.2 9.63 2.2 7.46 6.13-1.68 3.67-9.87 2.7-13 2.2v-0.489h0.0212zm19.7-66.6c0.244-0.733 0.956-2.7 1.68-3.19 0.956-0.489 1.68 0.244 1.68 1.22-0.244 0.733-1.2 2.7-1.92 3.19-0.956 0.733-0.956 0-1.44-1.22zm-29.1 4.9c1.2-0.733 1.92-1.22 2.64-2.2 0.478-0.489 0.956-1.22 1.44-0.244 0.478 0.489-0.478 1.48-0.722 1.96l-2.64 1.71v2.7c0 1.22-0.244 2.7-0.722 3.93-0.478 1.96-1.44 3.67-3.38 4.65-3.61 1.96-6.73-0.489-8.18-3.93l-0.956-4.16c-0.244-0.733 0-1.71-0.722-2.2-0.478-0.733-1.92-0.733-2.64-1.22-0.956-0.733-1.2-1.48-1.44-2.45 1.44 0.733 2.4 1.96 4.1 2.2 1.7 0.234 3.85 0 5.06-0.977 3.85-3.19-3.38-4.41-1.92-6.86 0.478-0.977 4.81-1.71 5.78-1.48 1.44 0.489 1.2 1.71 0.722 3.19-0.478 0.977-0.956 0.977-0.722 1.96l0.722 1.48c0.956 1.48 2.17 1.71 3.61 1.96h-0.0212zm-0.956 3.19c-0.478-1.96-0.956-1.96-2.4-2.94-0.722-0.489-1.44-1.22-2.17-0.977-0.722 0.244-1.2 1.22-1.68 1.48l-1.92 0.977-2.4 0.489c-0.478 0.733 0.956 3.19 1.2 4.16 0.956 2.7 2.17 6.37 5.53 5.15 3.12-1.22 3.38-5.64 3.85-8.33h-0.0212zm-4.1-10.5c-0.956 0.244-3.61 0.733-2.4 2.2 1.2 1.71 2.64-1.22 2.4-2.2zm13.5-7.1c0 1.48-0.722 3.93-2.64 4.16-2.17 0.489-2.88-2.45-2.88-4.16s0.478-3.93 2.64-4.16c2.4-0.244 2.64 2.2 2.88 4.16zm-28.9 2.2c0 1.48-0.244 3.93-2.4 3.67-1.68 0-2.64-2.2-2.64-3.67-0.478-5.15 4.81-3.93 5.06 0zm27.7-18.1-3.38 4.65c-0.478 0.733-3.12 4.65-4.1 4.65-2.64 0 1.2-3.93 1.44-4.41 1.68-1.71 3.61-4.16 5.53-5.15l0.478 0.244zm-35.9 5.38 7.22 2.2c0.722 0.489 5.3 2.7 3.12 3.67-1.2 0.489-4.1-2.45-5.3-2.94-1.68-0.733-4.81-0.977-6.02-2.45l0.956-0.489z" style="stroke-width:1.06"/>
</svg>
